<svg width="120" height="16" viewBox="0 0 120 16" fill="none" xmlns="http://www.w3.org/2000/svg">
<path d="M0 15.791V0.676758H2.2251L7.43408 8.521H7.51611L12.7354 0.676758H14.9502V15.791H12.0176V9.90527L12.0791 6.19336H11.9971L7.80322 12.7354H7.14697L2.95312 6.19336H2.87109L2.93262 9.90527V15.791H0ZM21.6868 15.9551C20.6409 15.9551 19.6907 15.7158 18.8362 15.2373C17.9886 14.752 17.3118 14.082 16.806 13.2275C16.3069 12.373 16.0574 11.3887 16.0574 10.2744C16.0574 9.16016 16.3069 8.18262 16.806 7.3418C17.3118 6.49414 17.9886 5.83447 18.8362 5.36279C19.6907 4.88428 20.6409 4.64502 21.6868 4.64502C22.7532 4.64502 23.7103 4.88428 24.5579 5.36279C25.4056 5.83447 26.0755 6.49414 26.5677 7.3418C27.0667 8.18262 27.3162 9.16016 27.3162 10.2744C27.3162 11.3887 27.0667 12.373 26.5677 13.2275C26.0687 14.082 25.3953 14.752 24.5477 15.2373C23.7 15.7158 22.7464 15.9551 21.6868 15.9551ZM21.6868 13.5044C22.2405 13.5044 22.7361 13.3711 23.1736 13.1045C23.6111 12.8311 23.9563 12.4517 24.2093 11.9663C24.4622 11.481 24.5887 10.917 24.5887 10.2744C24.5887 9.64551 24.4656 9.09521 24.2195 8.62354C23.9734 8.14502 23.6316 7.77246 23.1941 7.50586C22.7635 7.23242 22.2645 7.0957 21.6971 7.0957C21.1434 7.0957 20.6478 7.229 20.2103 7.49561C19.7728 7.75537 19.4275 8.12451 19.1746 8.60303C18.9217 9.08154 18.7952 9.63867 18.7952 10.2744C18.7952 10.917 18.9217 11.481 19.1746 11.9663C19.4275 12.4517 19.7693 12.8311 20.2 13.1045C20.6375 13.3711 21.1331 13.5044 21.6868 13.5044ZM33.4171 15.9551C32.3712 15.9551 31.421 15.7158 30.5665 15.2373C29.7188 14.752 29.0421 14.082 28.5362 13.2275C28.0372 12.373 27.7877 11.3887 27.7877 10.2744C27.7877 9.16016 28.0372 8.18262 28.5362 7.3418C29.0421 6.49414 29.7188 5.83447 30.5665 5.36279C31.421 4.88428 32.3712 4.64502 33.4171 4.64502C34.4835 4.64502 35.4405 4.88428 36.2882 5.36279C37.1358 5.83447 37.8058 6.49414 38.2979 7.3418C38.797 8.18262 39.0465 9.16016 39.0465 10.2744C39.0465 11.3887 38.797 12.373 38.2979 13.2275C37.7989 14.082 37.1256 14.752 36.2779 15.2373C35.4303 15.7158 34.4767 15.9551 33.4171 15.9551ZM33.4171 13.5044C33.9708 13.5044 34.4664 13.3711 34.9039 13.1045C35.3414 12.8311 35.6866 12.4517 35.9396 11.9663C36.1925 11.481 36.3189 10.917 36.3189 10.2744C36.3189 9.64551 36.1959 9.09521 35.9498 8.62354C35.7037 8.14502 35.3619 7.77246 34.9244 7.50586C34.4937 7.23242 33.9947 7.0957 33.4273 7.0957C32.8736 7.0957 32.378 7.229 31.9405 7.49561C31.503 7.75537 31.1578 8.12451 30.9049 8.60303C30.652 9.08154 30.5255 9.63867 30.5255 10.2744C30.5255 10.917 30.652 11.481 30.9049 11.9663C31.1578 12.4517 31.4996 12.8311 31.9303 13.1045C32.3678 13.3711 32.8634 13.5044 33.4171 13.5044ZM50.2538 15.9551C49.7753 15.791 49.372 15.6099 49.0438 15.4116C48.7226 15.2134 48.4696 14.998 48.2851 14.7656C48.1073 14.5332 47.9911 14.2734 47.9364 13.9863L48.2645 14.1914H47.3109L47.7929 12.9097V6.95215L47.2802 5.82422H47.557V0H50.3871V12.1919C50.3871 12.6089 50.452 12.9097 50.5819 13.0942C50.7118 13.272 50.9408 13.4258 51.2689 13.5557L50.2538 15.9551ZM44.3578 15.9551C43.7494 15.9551 43.1547 15.8354 42.5736 15.5962C41.9926 15.3569 41.4696 15.0015 41.0048 14.5298C40.5468 14.0513 40.1811 13.46 39.9076 12.7559C39.641 12.0518 39.5111 11.2383 39.518 10.3154C39.5043 9.08496 39.7299 8.0459 40.1947 7.19824C40.6664 6.35059 41.2782 5.71143 42.0302 5.28076C42.7821 4.84326 43.5785 4.62451 44.4193 4.62451C45.3559 4.62451 46.183 4.87061 46.9008 5.36279C47.6186 5.85498 48.1791 6.5249 48.5824 7.37256C48.9926 8.22021 49.2011 9.17041 49.2079 10.2231C49.2011 11.2827 48.9857 12.25 48.5619 13.125C48.1381 13.9932 47.5604 14.6836 46.829 15.1963C46.1044 15.7021 45.2807 15.9551 44.3578 15.9551ZM44.9833 13.5557C45.5097 13.5488 45.9745 13.4087 46.3778 13.1353C46.788 12.855 47.1093 12.4688 47.3417 11.9766C47.581 11.4844 47.7006 10.9136 47.7006 10.2642C47.7006 9.5874 47.581 9.00977 47.3417 8.53125C47.1024 8.0459 46.7812 7.67334 46.3778 7.41357C45.9813 7.15381 45.5336 7.02734 45.0346 7.03418C44.4945 7.02734 44.016 7.15723 43.599 7.42383C43.1889 7.69043 42.8676 8.06641 42.6352 8.55176C42.4027 9.03711 42.2899 9.60791 42.2968 10.2642C42.2899 10.9136 42.3993 11.4844 42.6249 11.9766C42.8573 12.4688 43.1752 12.855 43.5785 13.1353C43.9887 13.4087 44.4569 13.5488 44.9833 13.5557ZM61.8198 15.9551C60.5688 15.9551 59.6255 15.6099 58.9897 14.9194C58.3608 14.2222 58.0464 13.3301 58.0464 12.2432V1.51758H60.8765V12.0791C60.8765 12.5781 60.9961 12.937 61.2354 13.1558C61.4814 13.3677 61.772 13.4736 62.1069 13.4736C62.2642 13.4736 62.4146 13.4565 62.5581 13.4224C62.7085 13.3813 62.8384 13.3301 62.9478 13.2686L63.8706 15.5039C63.5835 15.6543 63.2656 15.7671 62.917 15.8423C62.5752 15.9175 62.2095 15.9551 61.8198 15.9551ZM56.2417 7.0957V4.79883H63.4604V7.0957H56.2417ZM64.4754 15.791V4.80908H67.2337V6.38818H67.5413L66.844 7.13672C67.0149 6.76074 67.2679 6.38135 67.6028 5.99854C67.9446 5.61572 68.365 5.29443 68.8641 5.03467C69.3631 4.7749 69.9441 4.64502 70.6072 4.64502C70.8875 4.64502 71.137 4.66553 71.3558 4.70654C71.5745 4.74756 71.7317 4.79199 71.8274 4.83984L70.6893 7.55713C70.6277 7.52295 70.5115 7.48877 70.3406 7.45459C70.1766 7.42041 69.992 7.40332 69.7869 7.40332C69.5203 7.40332 69.24 7.45801 68.9461 7.56738C68.6521 7.66992 68.3821 7.82715 68.136 8.03906C67.8899 8.25098 67.6883 8.51758 67.5311 8.83887C67.3807 9.16016 67.3055 9.53613 67.3055 9.9668V15.791H64.4754ZM74.6163 15.9551C73.878 15.9551 73.2286 15.8081 72.6681 15.5142C72.1075 15.2134 71.67 14.8101 71.3556 14.3042C71.0411 13.7983 70.8839 13.2275 70.8839 12.5918C70.8839 11.9355 71.0616 11.3579 71.4171 10.8589C71.7794 10.353 72.316 9.95996 73.027 9.67969C73.7379 9.39258 74.6163 9.24902 75.6622 9.24902H78.1026V11.1152H75.6827C75.0265 11.1152 74.5138 11.2246 74.1446 11.4434C73.7755 11.6621 73.5909 12.0039 73.5909 12.4688C73.5909 12.749 73.6593 12.9883 73.796 13.1865C73.9396 13.3779 74.1378 13.5249 74.3907 13.6274C74.6437 13.73 74.9308 13.7812 75.2521 13.7812C75.546 13.7812 75.8878 13.7163 76.2774 13.5864C76.6671 13.4565 77.0055 13.248 77.2926 12.9609C77.5865 12.667 77.7335 12.2842 77.7335 11.8125V10.6846L77.5489 10.1309V8.71582C77.5489 8.47656 77.5147 8.25439 77.4464 8.04932C77.378 7.84424 77.2652 7.66309 77.108 7.50586C76.9576 7.34863 76.756 7.229 76.503 7.14697C76.2569 7.05811 75.9562 7.01367 75.6007 7.01367C75.2521 7.01367 74.8863 7.05127 74.5035 7.12646C74.1207 7.20166 73.755 7.3042 73.4063 7.43408C73.0646 7.55713 72.7706 7.69727 72.5245 7.85449L71.6017 5.66016C71.8819 5.49609 72.2477 5.33887 72.6988 5.18848C73.15 5.03125 73.6559 4.90479 74.2164 4.80908C74.7838 4.70654 75.3751 4.65527 75.9903 4.65527C76.9952 4.65527 77.7848 4.79199 78.359 5.06543C78.9332 5.33887 79.3536 5.6875 79.6202 6.11133C79.8937 6.52832 80.068 6.96582 80.1432 7.42383C80.2184 7.88184 80.256 8.29883 80.256 8.6748V12.0996C80.256 12.5166 80.297 12.8311 80.379 13.043C80.4679 13.248 80.6388 13.3916 80.8917 13.4736L81.1378 13.5557L80.1124 15.9551L79.7843 15.832C79.1827 15.6064 78.7452 15.3433 78.4718 15.0425C78.1983 14.7349 78.0411 14.4307 78.0001 14.1299L78.5333 14.4785H77.631L78.2462 14.1914C78.0138 14.6562 77.5626 15.0664 76.8927 15.4219C76.2296 15.7773 75.4708 15.9551 74.6163 15.9551ZM87.0951 15.9141C86.2885 15.9141 85.5331 15.7705 84.829 15.4834C84.1317 15.1963 83.5165 14.7964 82.9833 14.2837C82.4569 13.771 82.0434 13.1729 81.7426 12.4893C81.4418 11.7988 81.2914 11.0503 81.2914 10.2437C81.2914 9.44385 81.4384 8.70557 81.7323 8.02881C82.0331 7.34521 82.4467 6.75049 82.973 6.24463C83.4994 5.73193 84.1044 5.33545 84.788 5.05518C85.4784 4.7749 86.2133 4.63477 86.9926 4.63477C87.6215 4.63477 88.2333 4.72705 88.828 4.91162C89.4228 5.08936 89.9491 5.33887 90.4071 5.66016L89.3612 7.95703C89.1698 7.78613 88.9511 7.63574 88.705 7.50586C88.4589 7.37598 88.1957 7.27686 87.9154 7.2085C87.642 7.14014 87.3583 7.10596 87.0644 7.10596C86.4628 7.10596 85.933 7.24609 85.475 7.52637C85.017 7.80664 84.6615 8.18604 84.4086 8.66455C84.1557 9.13623 84.0292 9.66602 84.0292 10.2539C84.0292 10.8486 84.1591 11.3887 84.4188 11.874C84.6786 12.3525 85.0375 12.7354 85.4955 13.0225C85.9535 13.3027 86.4765 13.4429 87.0644 13.4429C87.5429 13.4429 87.9975 13.3608 88.4281 13.1968C88.8588 13.0259 89.1835 12.8345 89.4022 12.6226L90.4276 14.9707C90.0312 15.2305 89.5424 15.4526 88.9613 15.6372C88.3871 15.8218 87.765 15.9141 87.0951 15.9141ZM91.1145 15.791V0H93.9445V9.17725H94.8264L93.8625 9.67969L97.9948 4.79883H101.399L96.0568 10.8486V9.23877L101.655 15.791H98.2614L93.842 10.4897L94.8264 11.0229H93.9445V15.791H91.1145ZM106.259 15.9551C105.104 15.9551 104.099 15.7158 103.245 15.2373C102.39 14.752 101.727 14.0854 101.255 13.2378C100.791 12.3833 100.558 11.4092 100.558 10.3154C100.558 9.16016 100.797 8.16211 101.276 7.32129C101.761 6.47363 102.404 5.81738 103.204 5.35254C104.01 4.8877 104.892 4.65527 105.849 4.65527C106.758 4.65527 107.589 4.86719 108.341 5.29102C109.1 5.70801 109.708 6.29932 110.166 7.06494C110.624 7.82373 110.853 8.72266 110.853 9.76172C110.853 10.001 110.839 10.23 110.812 10.4487C110.785 10.6675 110.744 10.9238 110.689 11.2178H102.67V9.33105H108.249C108.249 8.85938 108.146 8.4458 107.941 8.09033C107.736 7.73486 107.452 7.45801 107.09 7.25977C106.734 7.05469 106.321 6.95215 105.849 6.95215C105.275 6.95215 104.776 7.09229 104.352 7.37256C103.935 7.646 103.61 8.02881 103.378 8.521C103.152 9.01318 103.04 9.58398 103.04 10.2334C103.04 10.9102 103.166 11.5049 103.419 12.0176C103.672 12.5303 104.034 12.9336 104.506 13.2275C104.978 13.5146 105.535 13.6582 106.177 13.6582C106.54 13.6582 106.892 13.6172 107.233 13.5352C107.575 13.4463 107.893 13.3301 108.187 13.1865C108.481 13.043 108.734 12.8857 108.946 12.7148L109.869 14.9502C109.431 15.251 108.898 15.4937 108.269 15.6782C107.647 15.8628 106.977 15.9551 106.259 15.9551ZM111.827 15.791V4.80908H114.585V6.38818H114.893L114.196 7.13672C114.367 6.76074 114.619 6.38135 114.954 5.99854C115.296 5.61572 115.717 5.29443 116.216 5.03467C116.715 4.7749 117.296 4.64502 117.959 4.64502C118.239 4.64502 118.489 4.66553 118.707 4.70654C118.926 4.74756 119.083 4.79199 119.179 4.83984L118.041 7.55713C117.979 7.52295 117.863 7.48877 117.692 7.45459C117.528 7.42041 117.344 7.40332 117.138 7.40332C116.872 7.40332 116.592 7.45801 116.298 7.56738C116.004 7.66992 115.734 7.82715 115.488 8.03906C115.242 8.25098 115.04 8.51758 114.883 8.83887C114.732 9.16016 114.657 9.53613 114.657 9.9668V15.791H111.827Z" fill="#21214D"/>
</svg>
